<svg width="24" height="21" viewBox="0 0 24 21" fill="none" xmlns="http://www.w3.org/2000/svg">
<path d="M11 17.1667C11 17.719 11.4477 18.1667 12 18.1667C12.5523 18.1667 13 17.719 13 17.1667H11ZM13 3.83334C13 3.28106 12.5523 2.83334 12 2.83334C11.4477 2.83334 11 3.28106 11 3.83334H13ZM20 11.5C20.5523 11.5 21 11.0523 21 10.5C21 9.94772 20.5523 9.50001 20 9.50001V11.5ZM4 9.50001C3.44772 9.50001 3 9.94772 3 10.5C3 11.0523 3.44772 11.5 4 11.5V9.50001ZM13 17.1667V10.5H11V17.1667H13ZM13 10.5V3.83334H11V10.5H13ZM12 11.5H20V9.50001H12V11.5ZM12 9.50001H4V11.5H12V9.50001Z" fill="#6C786A" fill-opacity="0.5"/>
</svg>
